<svg width="523" height="298" viewBox="0 0 523 298" fill="none" xmlns="http://www.w3.org/2000/svg">
  <mask id="mask0_7_56" style="mask-type:alpha" maskUnits="userSpaceOnUse" x="0" y="0" width="523" height="298">
    <rect width="523" height="298" fill="#43A047" />
  </mask>
  <g mask="url(#mask0_7_56)">
  </g>
  <mask id="mask1_7_56" style="mask-type:alpha" maskUnits="userSpaceOnUse" x="0" y="0" width="523" height="298">
    <rect width="523" height="298" fill="#43A047" />
  </mask>
  <g mask="url(#mask1_7_56)">
    <path d="M-425 184.331L-413.271 169.199C-401.429 153.783 -377.633 123.945 -353.95 112.365C-330.831 101.211 -307.711 108.316 -284.028 131.262C-260.232 153.783 -236.661 192.146 -212.978 203.3C-189.633 214.88 -165.611 199.25 -143.056 172.965C-119.034 146.679 -95.6889 108.316 -72.0056 123.732C-48.435 138.864 -24.6389 207.065 -0.955597 210.83C22.1638 214.88 45.2833 153.783 68.9666 127.497C92.7627 101.211 116.333 108.316 140.017 119.896C163.362 131.049 187.383 146.679 209.939 146.466C233.961 146.679 257.306 131.049 280.989 135.099C304.672 138.864 328.355 161.598 352.039 153.996C375.271 146.679 398.278 108.316 421.961 112.365C445.87 116.13 469.328 161.598 493.011 188.097C516.469 214.88 540.378 221.984 564.061 199.464C587.068 176.517 610.3 123.945 633.983 112.365C657.667 101.211 681.35 131.049 705.033 135.099C728.265 138.864 751.272 116.13 774.955 108.529C798.864 101.211 822.322 108.316 846.005 135.099C869.463 161.598 893.372 207.065 917.055 210.83C940.062 214.88 963.294 176.517 986.978 150.231C1010.66 123.945 1034.34 108.316 1058.03 100.998C1081.37 93.3966 1105.39 93.3966 1127.95 108.529C1151.97 123.945 1175.32 153.783 1187.72 169.199L1199 184.331V298H1187.27C1175.43 298 1151.63 298 1127.95 298C1104.83 298 1081.71 298 1058.03 298C1034.23 298 1010.66 298 986.978 298C963.633 298 939.611 298 917.055 298C893.034 298 869.689 298 846.005 298C822.435 298 798.639 298 774.955 298C751.836 298 728.717 298 705.033 298C681.237 298 657.667 298 633.983 298C610.638 298 586.617 298 564.061 298C540.039 298 516.694 298 493.011 298C469.328 298 445.644 298 421.961 298C398.729 298 375.722 298 352.039 298C328.13 298 304.672 298 280.989 298C257.531 298 233.622 298 209.939 298C186.932 298 163.7 298 140.017 298C116.333 298 92.6499 298 68.9666 298C45.7344 298 22.7277 298 -0.955597 298C-24.8645 298 -48.3223 298 -72.0056 298C-95.4634 298 -119.372 298 -143.056 298C-166.062 298 -189.294 298 -212.978 298C-236.661 298 -260.344 298 -284.028 298C-307.373 298 -331.394 298 -353.95 298C-377.972 298 -401.317 298 -413.722 298H-425V184.331Z" fill="#43A047" />
  </g>
</svg>
