<svg width="437" height="459" viewBox="0 0 437 459" fill="none" xmlns="http://www.w3.org/2000/svg">
  <mask id="mask0_8_67" style="mask-type:alpha" maskUnits="userSpaceOnUse" x="0" y="0" width="437" height="459">
    <rect width="437" height="459" fill="#43A047" />
  </mask>
  <g mask="url(#mask0_8_67)">
    <path d="M-1394 180.456L-1368.22 143.375C-1342.19 105.597 -1289.88 32.4792 -1237.81 4.10247C-1186.99 -23.2297 -1136.17 -5.82067 -1084.1 50.4104C-1031.79 105.597 -979.979 199.606 -927.917 226.938C-876.598 255.315 -823.792 217.015 -774.208 152.601C-721.402 88.188 -670.083 -5.82068 -618.021 31.9569C-566.206 69.0381 -513.896 236.165 -461.833 245.391C-411.01 255.315 -360.188 105.597 -308.125 41.1837C-255.815 -23.2297 -204 -5.82067 -151.938 22.556C-100.619 49.8882 -47.8125 88.188 1.77087 87.6657C54.5771 88.188 105.896 49.8882 157.958 59.8113C210.021 69.0381 262.083 124.747 314.146 106.119C365.217 88.188 415.792 -5.82067 467.854 4.10247C520.412 13.3292 571.979 124.747 624.042 189.683C675.608 255.315 728.167 272.724 780.229 217.537C830.804 161.306 881.875 32.4792 933.938 4.10247C986 -23.2297 1038.06 49.8882 1090.12 59.8113C1141.2 69.0381 1191.77 13.3292 1243.83 -5.2984C1296.39 -23.2297 1347.96 -5.82068 1400.02 59.8113C1451.59 124.747 1504.15 236.165 1556.21 245.391C1606.78 255.315 1657.85 161.306 1709.92 96.8925C1761.98 32.4792 1814.04 -5.82067 1866.1 -23.752C1917.42 -42.3796 1970.23 -42.3796 2019.81 -5.2984C2072.62 32.4792 2123.94 105.597 2151.21 143.375L2176 180.456V459H2150.22C2124.19 459 2071.88 459 2019.81 459C1968.99 459 1918.17 459 1866.1 459C1813.79 459 1761.98 459 1709.92 459C1658.6 459 1605.79 459 1556.21 459C1503.4 459 1452.08 459 1400.02 459C1348.21 459 1295.9 459 1243.83 459C1193.01 459 1142.19 459 1090.12 459C1037.81 459 986 459 933.938 459C882.619 459 829.813 459 780.229 459C727.423 459 676.104 459 624.042 459C571.979 459 519.917 459 467.854 459C416.783 459 366.208 459 314.146 459C261.588 459 210.021 459 157.958 459C106.392 459 53.8334 459 1.77087 459C-48.8041 459 -99.875 459 -151.938 459C-204 459 -256.062 459 -308.125 459C-359.196 459 -409.771 459 -461.833 459C-514.392 459 -565.958 459 -618.021 459C-669.587 459 -722.146 459 -774.208 459C-824.783 459 -875.854 459 -927.917 459C-979.979 459 -1032.04 459 -1084.1 459C-1135.42 459 -1188.23 459 -1237.81 459C-1290.62 459 -1341.94 459 -1369.21 459H-1394V180.456Z" fill="#43A047" />
  </g>
</svg>
