<svg width="295" height="52" viewBox="0 0 295 52" fill="none" xmlns="http://www.w3.org/2000/svg">
<g clip-path="url(#clip0_4_30)">
<path d="M75.0921 25.994C75.0396 22.3111 75.7156 18.6541 77.0813 15.2335C78.3295 12.1322 80.2241 9.33254 82.639 7.02105C85.0739 4.72655 87.9519 2.95399 91.0965 1.81219C98.0171 -0.607073 105.553 -0.607073 112.474 1.81219C115.617 2.95316 118.493 4.72587 120.924 7.02105C123.335 9.33608 125.229 12.1348 126.482 15.2335C127.847 18.6543 128.523 22.3111 128.471 25.994C128.524 29.6769 127.848 33.3339 126.482 36.7545C125.232 39.8549 123.338 42.6543 120.924 44.9669C118.493 47.2621 115.617 49.0348 112.474 50.1758C105.552 52.6002 98.0115 52.6002 91.0893 50.1758C87.9431 49.0375 85.0643 47.2645 82.6318 44.9669C80.2211 42.6519 78.3272 39.8532 77.0741 36.7545C75.7131 33.3302 75.0389 29.6715 75.0897 25.9868L75.0921 25.994ZM86.4112 25.9868C86.3834 28.1663 86.7496 30.3329 87.492 32.3822C88.1765 34.2551 89.2368 35.9682 90.6076 37.4161C91.9771 38.8484 93.631 39.9785 95.4631 40.7337C99.5284 42.317 104.04 42.317 108.105 40.7337C109.937 39.9785 111.591 38.8484 112.961 37.4161C114.331 35.9682 115.392 34.2551 116.076 32.3822C116.818 30.3328 117.184 28.1663 117.157 25.9868C117.178 23.8211 116.812 21.6691 116.076 19.6321C115.396 17.7473 114.335 16.0225 112.961 14.5647C111.591 13.1324 109.937 12.0023 108.105 11.2471C104.04 9.66383 99.5284 9.66383 95.4631 11.2471C93.63 12.0004 91.9758 13.1307 90.6076 14.5647C89.2314 16.0214 88.1708 17.7465 87.492 19.6321C86.757 21.6693 86.3909 23.8212 86.4112 25.9868Z" fill="black"/>
<path d="M177.716 2.95321L167.269 34.0075C167.235 34.113 167.168 34.2048 167.078 34.27C166.988 34.3351 166.88 34.3702 166.768 34.3702C166.657 34.3702 166.549 34.3351 166.459 34.27C166.369 34.2048 166.302 34.113 166.268 34.0075L155.9 2.9604C155.741 2.46652 155.429 2.0359 155.009 1.7305C154.59 1.4251 154.085 1.26067 153.566 1.26086H141.259C140.609 1.2615 139.985 1.52031 139.525 1.98051C139.065 2.4407 138.806 3.06467 138.805 3.71548V48.2845C138.806 48.9353 139.065 49.5593 139.525 50.0195C139.985 50.4797 140.609 50.7385 141.259 50.7391H147.251C147.901 50.7385 148.525 50.4797 148.985 50.0195C149.445 49.5593 149.704 48.9353 149.705 48.2845V16.8419C149.703 16.6868 149.757 16.5362 149.857 16.4176C149.956 16.299 150.096 16.2205 150.249 16.1963C150.402 16.1721 150.559 16.204 150.69 16.286C150.822 16.368 150.92 16.4948 150.965 16.643L161.592 49.0588C161.752 49.5501 162.063 49.9783 162.481 50.2823C162.899 50.5862 163.402 50.7503 163.919 50.7511H169.12C169.633 50.7514 170.133 50.5909 170.551 50.2921C170.968 49.9932 171.281 49.5712 171.447 49.0851L182.543 16.4848C182.592 16.3391 182.691 16.2156 182.822 16.1362C182.954 16.0569 183.109 16.0269 183.261 16.0517C183.412 16.0765 183.55 16.1544 183.65 16.2715C183.749 16.3886 183.804 16.5373 183.803 16.6909V48.2845C183.804 48.9353 184.063 49.5593 184.523 50.0195C184.983 50.4797 185.607 50.7385 186.258 50.7391H192.249C192.9 50.7385 193.523 50.4797 193.984 50.0195C194.444 49.5593 194.702 48.9353 194.703 48.2845V3.71548C194.702 3.06591 194.445 2.44303 193.986 1.98304C193.528 1.52305 192.906 1.2634 192.256 1.26086H180.034C179.517 1.26243 179.014 1.4268 178.596 1.73061C178.179 2.03443 177.867 2.46223 177.706 2.95321" fill="black"/>
<path d="M239.009 28.7938C237.935 27.1139 236.49 25.7039 234.784 24.6732C233.067 23.6433 231.223 22.8445 229.298 22.2977C227.341 21.74 225.512 21.1806 223.812 20.6197C222.311 20.1595 220.887 19.4776 219.587 18.5966C219.04 18.2155 218.598 17.7013 218.305 17.1024C218.011 16.5035 217.875 15.8397 217.909 15.1735C217.884 14.3278 218.128 13.4958 218.607 12.798C219.08 12.1385 219.703 11.5998 220.423 11.2255C221.173 10.8306 221.971 10.5364 222.798 10.3506C223.599 10.1693 224.417 10.076 225.238 10.0725C227.282 10.0735 229.278 10.6955 230.961 11.856L231.373 12.1412C231.861 12.4773 232.455 12.6256 233.043 12.5586C233.632 12.4916 234.177 12.214 234.577 11.7769L238.803 7.15289C239.042 6.88855 239.222 6.57535 239.329 6.2349C239.435 5.89445 239.467 5.53486 239.422 5.18095C239.376 4.82703 239.254 4.48722 239.065 4.18497C238.875 3.88271 238.622 3.6252 238.323 3.43022C236.842 2.4578 235.227 1.70453 233.53 1.19373C230.907 0.392834 228.179 -0.0111502 225.437 -0.00480931C223.048 -0.00845544 220.671 0.331412 218.379 1.00436C216.194 1.6334 214.145 2.66416 212.337 4.04387C210.592 5.39864 209.162 7.11615 208.146 9.07775C207.066 11.2439 206.532 13.6409 206.59 16.0605C206.478 18.3957 207.075 20.7101 208.301 22.7004C209.415 24.354 210.883 25.7387 212.598 26.7539C214.355 27.7959 216.233 28.6179 218.19 29.2013C220.193 29.8054 222.058 30.4142 223.781 31.0183C225.318 31.5265 226.768 32.2696 228.078 33.2212C228.63 33.6247 229.074 34.1573 229.373 34.7725C229.671 35.3876 229.814 36.0665 229.789 36.7497C229.809 37.569 229.578 38.3748 229.125 39.0581C228.673 39.719 228.076 40.2683 227.381 40.6642C226.617 41.1 225.792 41.4176 224.934 41.6062C224.053 41.8153 223.152 41.9223 222.247 41.925C220.42 41.9207 218.618 41.5036 216.975 40.7049C216.045 40.2639 215.179 39.6995 214.401 39.027C213.919 38.5989 213.288 38.3772 212.645 38.4094C212.001 38.4417 211.396 38.7254 210.959 39.1995L206.715 43.8691C206.485 44.1173 206.309 44.4107 206.199 44.7306C206.089 45.0504 206.046 45.3898 206.075 45.7269C206.103 46.0641 206.201 46.3917 206.363 46.6888C206.525 46.986 206.746 47.2461 207.014 47.4527C208.734 48.7554 210.642 49.7891 212.673 50.5186C217.919 52.2904 223.575 52.4573 228.917 50.998C231.118 50.4003 233.181 49.3793 234.992 47.9921C236.748 46.6299 238.17 44.8853 239.15 42.8911C240.216 40.6465 240.743 38.184 240.689 35.6998C240.806 33.282 240.223 30.8817 239.011 28.7866" fill="black"/>
<path d="M254.481 1.26087H260.472C261.123 1.2615 261.747 1.52031 262.207 1.98051C262.667 2.4407 262.926 3.06467 262.927 3.71548V21.4539C262.926 21.5505 262.948 21.6458 262.99 21.7329C263.031 21.82 263.092 21.8967 263.167 21.9572C263.242 22.0177 263.33 22.0605 263.424 22.0825C263.518 22.1046 263.616 22.1052 263.71 22.0844L283.59 21.8255C283.734 21.7947 283.864 21.7154 283.957 21.6006C284.05 21.4859 284.1 21.3427 284.1 21.195V3.71548C284.101 3.39282 284.165 3.07338 284.288 2.77541C284.412 2.47743 284.593 2.20674 284.822 1.97881C285.05 1.75088 285.321 1.57016 285.619 1.44698C285.917 1.32379 286.237 1.26055 286.559 1.26087H292.551C293.201 1.2615 293.825 1.52031 294.285 1.98051C294.745 2.4407 295.004 3.06467 295.005 3.71548V48.2845C295.005 48.6069 294.942 48.9263 294.819 49.2242C294.695 49.5222 294.515 49.7929 294.287 50.0209C294.059 50.2489 293.788 50.4297 293.49 50.5529C293.192 50.6762 292.873 50.7394 292.551 50.7391H286.559C285.909 50.7385 285.285 50.4797 284.825 50.0195C284.365 49.5593 284.106 48.9353 284.105 48.2845V32.1497C284.105 32.0532 284.084 31.9578 284.042 31.8707C284 31.7836 283.94 31.707 283.865 31.6465C283.789 31.586 283.701 31.5431 283.607 31.5211C283.513 31.4991 283.416 31.4985 283.321 31.5193L263.442 31.7782C263.297 31.8089 263.168 31.8883 263.075 32.003C262.982 32.1178 262.931 32.2609 262.931 32.4086V48.2773C262.931 48.9281 262.672 49.5521 262.212 50.0123C261.752 50.4725 261.128 50.7313 260.477 50.7319H254.481C253.83 50.7313 253.207 50.4725 252.746 50.0123C252.286 49.5521 252.028 48.9281 252.027 48.2773V3.71548C252.027 3.39305 252.09 3.07372 252.213 2.77577C252.336 2.47782 252.517 2.2071 252.745 1.9791C252.973 1.75111 253.244 1.57031 253.542 1.44707C253.839 1.32383 254.159 1.26055 254.481 1.26087Z" fill="black"/>
<path d="M57.7816 3.03949L50.4001 28.8609C50.3624 28.9934 50.2834 29.1104 50.1747 29.195C50.0659 29.2795 49.933 29.3271 49.7953 29.3308C49.6576 29.3345 49.5223 29.2942 49.4091 29.2158C49.2959 29.1373 49.2107 29.0247 49.1659 28.8945L40.1379 2.90525C39.9713 2.42419 39.6586 2.00716 39.2436 1.71237C38.8285 1.41758 38.3319 1.25973 37.8228 1.26085H30.693C30.1824 1.26089 29.6844 1.41992 29.2683 1.71589C28.8522 2.01185 28.5384 2.43005 28.3707 2.91244L19.35 28.8921C19.3052 29.0223 19.2199 29.1349 19.1067 29.2134C18.9935 29.2919 18.8582 29.3322 18.7206 29.3284C18.5829 29.3247 18.45 29.2771 18.3412 29.1926C18.2324 29.108 18.1534 28.991 18.1158 28.8585L10.7343 3.03949C10.5877 2.52615 10.2776 2.07469 9.85108 1.75367C9.42459 1.43266 8.90501 1.25962 8.37125 1.26085H2.45649C2.07516 1.26073 1.69906 1.34948 1.358 1.52008C1.01695 1.69068 0.720335 1.93842 0.491689 2.24365C0.263043 2.54889 0.108657 2.90322 0.0407799 3.27853C-0.0270977 3.65385 -0.00659958 4.03982 0.100648 4.40583L13.452 50.0751C13.5085 50.2671 13.6257 50.4355 13.786 50.5553C13.9463 50.675 14.1411 50.7395 14.3411 50.7391H16.3183C18.3623 50.7389 20.3532 50.0885 22.0032 48.882C23.6533 47.6754 24.8769 45.9752 25.4972 44.0273L33.5042 18.8818C33.5546 18.7198 33.6556 18.578 33.7923 18.4774C33.9289 18.3768 34.0942 18.3225 34.2639 18.3225C34.4336 18.3225 34.5989 18.3768 34.7356 18.4774C34.8723 18.578 34.9732 18.7198 35.0236 18.8818L43.0282 44.0249C43.6485 45.9728 44.8722 47.673 46.5222 48.8796C48.1722 50.0861 50.1632 50.7365 52.2071 50.7367H54.1843C54.3841 50.7359 54.5783 50.671 54.7384 50.5514C54.8985 50.4319 55.0159 50.2641 55.0734 50.0727L68.4272 4.40583C68.5344 4.03982 68.5549 3.65385 68.4871 3.27853C68.4192 2.90322 68.2648 2.54889 68.0361 2.24365C67.8075 1.93842 67.5109 1.69068 67.1698 1.52008C66.8288 1.34948 66.4527 1.26073 66.0714 1.26085H60.1566C59.6207 1.2566 59.0982 1.42828 58.6692 1.74955C58.2402 2.07082 57.9284 2.52396 57.7816 3.03949Z" fill="black"/>
</g>
<defs>
<clipPath id="clip0_4_30">
<rect width="295" height="52" fill="white"/>
</clipPath>
</defs>
</svg>
